<svg width="54" height="54" viewBox="0 0 54 54" fill="none" xmlns="http://www.w3.org/2000/svg">
<path d="M51.4561 17.993C50.9044 16.7323 50.1112 15.5918 49.1214 14.6357C48.1224 13.6673 46.9469 12.8994 45.6587 12.3736C44.3129 11.8226 42.8722 11.5406 41.418 11.5433C39.9473 11.5433 38.5197 11.8226 37.1773 12.3736C35.8891 12.8994 34.7136 13.6673 33.7146 14.6357C32.7231 15.5903 31.9297 16.7312 31.3799 17.993C30.8121 19.289 30.5199 20.6888 30.5218 22.1037V41.7504C30.5218 45.9101 27.0329 49.2944 22.7416 49.2944C18.4511 49.2944 14.9597 45.9093 14.9597 41.7504V32.6978H17.4184C17.9356 32.6978 18.3533 32.2937 18.3533 31.7925V28.4411C21.0431 26.8304 22.8352 23.9456 22.8352 20.6558V16.8522H24.1895C24.7042 16.8522 25.1227 16.4481 25.1227 15.9469V12.4166C25.1227 11.9981 24.8307 11.6454 24.4342 11.5425H18.9608V2.59284C18.9633 2.09334 18.5448 1.6875 18.0284 1.6875H16.7839C16.2667 1.6875 15.8498 2.09334 15.8498 2.59284V11.5425H10.9628V2.59284C10.9628 2.09334 10.5443 1.6875 10.0288 1.6875H8.78344C8.26875 1.6875 7.85025 2.09334 7.85025 2.59284V11.5425H2.37769C2.18204 11.5914 2.00815 11.7038 1.88325 11.8622C1.75835 12.0205 1.68951 12.2158 1.6875 12.4175V15.9469C1.6875 16.4481 2.106 16.8522 2.61984 16.8522H3.97491V20.6558C3.97491 23.9465 5.76534 26.8296 8.45691 28.4411V31.7925C8.45691 32.2937 8.87372 32.6978 9.38925 32.6978H11.8488V41.7504C11.8488 43.1764 12.1382 44.5593 12.7052 45.862C13.2569 47.1227 14.0501 48.2632 15.0398 49.2193C16.0388 50.1883 17.2142 50.9568 18.5026 51.4831C19.8458 52.0341 21.2743 52.3125 22.7433 52.3125C24.2122 52.3125 25.6424 52.0341 26.984 51.4831C28.272 50.9567 29.4472 50.1883 30.4459 49.2193C31.4376 48.2648 32.2313 47.1239 32.7814 45.862C33.349 44.5657 33.6409 43.1656 33.6386 41.7504V22.1037C33.6386 17.9449 37.1275 14.5598 41.4197 14.5598C45.7102 14.5598 49.2016 17.9457 49.2016 22.1037V52.3125H52.3125V22.1037C52.3125 20.6795 52.0231 19.2949 51.4561 17.993Z" fill="#E2CF58"/>
</svg>
