<svg width="54" height="54" viewBox="0 0 54 54" fill="none" xmlns="http://www.w3.org/2000/svg">
<path d="M32.9872 27.34L14.148 46.1792C13.2529 47.0744 12.0388 47.5772 10.773 47.5772C9.5071 47.5772 8.29308 47.0744 7.39797 46.1792C6.50287 45.2841 6 44.0701 6 42.8042C6 41.5384 6.50287 40.3244 7.39797 39.4292L26.2372 20.59M39.7372 34.09L48.7372 25.09L39.7372 34.09Z" fill="#F95A5C"/>
<path d="M32.9872 27.34L14.148 46.1792C13.2529 47.0744 12.0388 47.5772 10.773 47.5772C9.5071 47.5772 8.29308 47.0744 7.39797 46.1792C6.50287 45.2841 6 44.0701 6 42.8042C6 41.5384 6.50287 40.3244 7.39797 39.4292L26.2372 20.59M39.7372 34.09L48.7372 25.09" stroke="#F95A5C" stroke-width="4" stroke-linecap="round" stroke-linejoin="round"/>
<path d="M47.6122 26.215L43.3057 21.9085C42.4617 21.0648 41.9874 19.9204 41.9872 18.727V16.09L36.9022 11.005C34.3924 8.49666 30.996 7.07731 27.4477 7.054L19.4872 7L21.5572 8.845C23.0275 10.1486 24.2047 11.7491 25.0114 13.5408C25.8181 15.3326 26.2359 17.275 26.2372 19.24V22.84L30.7372 27.34H33.3742C34.5676 27.3403 35.712 27.8145 36.5557 28.6585L40.8622 32.965" stroke="#F95A5C" stroke-width="4" stroke-linecap="round" stroke-linejoin="round"/>
</svg>
