<svg width="54" height="54" viewBox="0 0 54 54" fill="none" xmlns="http://www.w3.org/2000/svg">
<path d="M4.5 49.5V31.5L13.5 27.5063V20.25L24.75 14.625V11.25H20.25V6.75H24.75V2.25H29.25V6.75H33.75V11.25H29.25V14.625L40.5 20.25V27.5063L49.5 31.5V49.5H29.25V40.5C29.25 39.8625 29.034 39.3285 28.602 38.898C28.17 38.4675 27.636 38.2515 27 38.25C26.364 38.2485 25.83 38.4645 25.398 38.898C24.966 39.3315 24.75 39.8655 24.75 40.5V49.5H4.5ZM9 45H20.25V40.3875C20.25 38.475 20.9062 36.8535 22.2188 35.523C23.5312 34.1925 25.125 33.5265 27 33.525C28.875 33.5235 30.4688 34.1895 31.7812 35.523C33.0938 36.8565 33.75 38.478 33.75 40.3875V45H45V34.2L36 30.15V22.6125L27 18L18 22.6125V30.15L9 34.2V45ZM27 30.375C27.9375 30.375 28.7347 30.0472 29.3918 29.3918C30.0487 28.7362 30.3765 27.939 30.375 27C30.3735 26.061 30.0457 25.2645 29.3918 24.6105C28.7377 23.9565 27.9405 23.628 27 23.625C26.0595 23.622 25.263 23.9505 24.6105 24.6105C23.958 25.2705 23.6295 26.067 23.625 27C23.6205 27.933 23.949 28.7302 24.6105 29.3918C25.272 30.0532 26.0685 30.381 27 30.375Z" fill="#5982E0"/>
</svg>
