<svg width="54" height="54" viewBox="0 0 54 54" fill="none" xmlns="http://www.w3.org/2000/svg">
<path fill-rule="evenodd" clip-rule="evenodd" d="M36.495 41.265C33.0642 43.7032 28.959 45.0119 24.75 45.009C13.545 45.009 4.5 35.964 4.5 24.759C4.5 13.554 13.545 4.50897 24.75 4.50897C35.955 4.50897 45 13.554 45 24.759C45 29.133 43.614 33.174 41.256 36.504L48.501 43.749C48.8142 44.0622 49.0626 44.434 49.2321 44.8432C49.4017 45.2524 49.4889 45.691 49.4889 46.134C49.4889 46.5769 49.4017 47.0155 49.2321 47.4247C49.0626 47.8339 48.8142 48.2058 48.501 48.519C48.1878 48.8322 47.816 49.0806 47.4067 49.2501C46.9975 49.4196 46.5589 49.5069 46.116 49.5069C45.6731 49.5069 45.2345 49.4196 44.8252 49.2501C44.416 49.0806 44.0442 48.8322 43.731 48.519L36.486 41.274L36.495 41.265ZM40.5135 24.75C40.5135 33.435 33.4485 40.5 24.7635 40.5C16.0785 40.5 9.0135 33.435 9.0135 24.75C9.0135 16.065 16.0785 8.99997 24.7635 8.99997C33.4485 8.99997 40.5135 16.065 40.5135 24.75Z" fill="#FA794A"/>
</svg>
