<svg width="54" height="54" viewBox="0 0 54 54" fill="none" xmlns="http://www.w3.org/2000/svg">
<path d="M34.7782 21.7687L34.4565 21.4492C32.9493 19.9993 31.0992 18.9551 29.079 18.414C22.5382 16.6612 16.2563 20.3692 14.472 27.0315C14.3753 27.3915 14.3235 27.7965 14.238 28.8112C13.8915 33.0187 12.9015 36.1575 10.188 39.3412C15.273 41.3392 21.2985 42.7477 25.8795 42.7477C28.6029 42.7442 31.2493 41.8432 33.409 40.1842C35.5688 38.5251 37.1215 36.2005 37.827 33.57C38.3802 31.5069 38.3899 29.3357 37.8553 27.2677C37.3206 25.1997 36.262 23.3052 34.7782 21.7687ZM29.898 13.9792L41.0107 5.33474C41.4437 4.99892 41.9842 4.8326 42.531 4.86699C43.0778 4.90137 43.5933 5.13409 43.9808 5.52149L50.7195 12.258C51.1066 12.6457 51.3389 13.1613 51.3728 13.7081C51.4068 14.2549 51.2401 14.7953 50.904 15.228L42.264 26.3407C42.8732 28.8256 42.9098 31.4165 42.371 33.9176C41.8322 36.4187 40.7321 38.7647 39.1538 40.7784C37.5755 42.7921 35.5603 44.4208 33.2603 45.5415C30.9603 46.6622 28.4357 47.2456 25.8773 47.2477C18 47.2477 7.875 43.8682 2.25 40.4932C11.205 33.7432 9.10575 29.6707 10.125 25.8682C12.5055 16.9807 21.0173 11.7877 29.898 13.9792ZM37.575 18.207C37.722 18.3495 37.8675 18.4942 38.0115 18.6412L40.5675 21.195L46.1362 14.0355L42.2078 10.107L35.0482 15.6757L37.575 18.207Z" fill="#95E257"/>
</svg>
